<?xml version="1.0" encoding="iso-8859-1"?>
<!-- Generator: Adobe Illustrator 19.1.1, SVG Export Plug-In . SVG Version: 6.00 Build 0)  -->
<svg version="1.1" id="Layer_1" xmlns="http://www.w3.org/2000/svg" xmlns:xlink="http://www.w3.org/1999/xlink" x="0px" y="0px"
	 viewBox="0 0 120.773 120.773" style="enable-background:new 0 0 120.773 120.773;" xml:space="preserve">
<circle style="fill:#27F0B1;" cx="59.5" cy="61.117" r="59.5"/>
<g>
	<g>
		<g>
			<linearGradient id="SVGID_1_" gradientUnits="userSpaceOnUse" x1="12.9064" y1="88.2489" x2="112.8891" y2="61.4586">
				<stop  offset="0" style="stop-color:#FFFFFF"/>
				<stop  offset="1" style="stop-color:#025F4E"/>
			</linearGradient>
			<line style="fill:none;stroke:url(#SVGID_1_);stroke-miterlimit:10;" x1="112.78" y1="61.555" x2="112.28" y2="61.554"/>
			<linearGradient id="SVGID_2_" gradientUnits="userSpaceOnUse" x1="9.2413" y1="74.5705" x2="109.224" y2="47.7802">
				<stop  offset="0" style="stop-color:#FFFFFF"/>
				<stop  offset="1" style="stop-color:#025F4E"/>
			</linearGradient>
			
				<line style="fill:none;stroke:url(#SVGID_2_);stroke-miterlimit:10;stroke-dasharray:0.99,4.9499;" x1="107.33" y1="61.548" x2="8.827" y2="61.421"/>
			<linearGradient id="SVGID_3_" gradientUnits="userSpaceOnUse" x1="5.7428" y1="61.5139" x2="105.7254" y2="34.7236">
				<stop  offset="0" style="stop-color:#FFFFFF"/>
				<stop  offset="1" style="stop-color:#025F4E"/>
			</linearGradient>
			<line style="fill:none;stroke:url(#SVGID_3_);stroke-miterlimit:10;" x1="6.352" y1="61.418" x2="5.852" y2="61.417"/>
		</g>
		<g>
			<linearGradient id="SVGID_4_" gradientUnits="userSpaceOnUse" x1="14.1141" y1="98.4835" x2="111.5005" y2="72.3889">
				<stop  offset="0" style="stop-color:#FFFFFF"/>
				<stop  offset="1" style="stop-color:#025F4E"/>
			</linearGradient>
			<line style="fill:none;stroke:url(#SVGID_4_);stroke-miterlimit:10;" x1="111.392" y1="72.485" x2="110.892" y2="72.485"/>
			<linearGradient id="SVGID_5_" gradientUnits="userSpaceOnUse" x1="10.5367" y1="85.1327" x2="107.9231" y2="59.038">
				<stop  offset="0" style="stop-color:#FFFFFF"/>
				<stop  offset="1" style="stop-color:#025F4E"/>
			</linearGradient>
			
				<line style="fill:none;stroke:url(#SVGID_5_);stroke-miterlimit:10;stroke-dasharray:1.0213,5.1065;" x1="105.785" y1="72.477" x2="10.294" y2="72.332"/>
			<linearGradient id="SVGID_6_" gradientUnits="userSpaceOnUse" x1="7.1314" y1="72.4237" x2="104.5178" y2="46.3291">
				<stop  offset="0" style="stop-color:#FFFFFF"/>
				<stop  offset="1" style="stop-color:#025F4E"/>
			</linearGradient>
			<line style="fill:none;stroke:url(#SVGID_6_);stroke-miterlimit:10;" x1="7.74" y1="72.328" x2="7.24" y2="72.327"/>
		</g>
		<g>
			<linearGradient id="SVGID_7_" gradientUnits="userSpaceOnUse" x1="16.9754" y1="107.1592" x2="105.9457" y2="83.3197">
				<stop  offset="0" style="stop-color:#FFFFFF"/>
				<stop  offset="1" style="stop-color:#025F4E"/>
			</linearGradient>
			<line style="fill:none;stroke:url(#SVGID_7_);stroke-miterlimit:10;" x1="105.837" y1="83.416" x2="105.337" y2="83.415"/>
			<linearGradient id="SVGID_8_" gradientUnits="userSpaceOnUse" x1="13.7059" y1="94.9572" x2="102.6762" y2="71.1176">
				<stop  offset="0" style="stop-color:#FFFFFF"/>
				<stop  offset="1" style="stop-color:#025F4E"/>
			</linearGradient>
			
				<line style="fill:none;stroke:url(#SVGID_8_);stroke-miterlimit:10;stroke-dasharray:0.9908,4.9539;" x1="100.383" y1="83.408" x2="13.689" y2="83.285"/>
			<linearGradient id="SVGID_9_" gradientUnits="userSpaceOnUse" x1="10.6031" y1="83.3777" x2="99.5735" y2="59.5381">
				<stop  offset="0" style="stop-color:#FFFFFF"/>
				<stop  offset="1" style="stop-color:#025F4E"/>
			</linearGradient>
			<line style="fill:none;stroke:url(#SVGID_9_);stroke-miterlimit:10;" x1="11.212" y1="83.282" x2="10.712" y2="83.281"/>
		</g>
		<g>
			<linearGradient id="SVGID_10_" gradientUnits="userSpaceOnUse" x1="23.2229" y1="115.0199" x2="100.7381" y2="94.2498">
				<stop  offset="0" style="stop-color:#FFFFFF"/>
				<stop  offset="1" style="stop-color:#025F4E"/>
			</linearGradient>
			<line style="fill:none;stroke:url(#SVGID_10_);stroke-miterlimit:10;" x1="100.629" y1="94.346" x2="100.129" y2="94.346"/>
			<linearGradient id="SVGID_11_" gradientUnits="userSpaceOnUse" x1="20.368" y1="104.3656" x2="97.8833" y2="83.5954">
				<stop  offset="0" style="stop-color:#FFFFFF"/>
				<stop  offset="1" style="stop-color:#025F4E"/>
			</linearGradient>
			
				<line style="fill:none;stroke:url(#SVGID_11_);stroke-miterlimit:10;stroke-dasharray:0.986,4.9302;" x1="95.199" y1="94.339" x2="20.753" y2="94.238"/>
			<linearGradient id="SVGID_12_" gradientUnits="userSpaceOnUse" x1="17.6792" y1="94.3306" x2="95.1944" y2="73.5605">
				<stop  offset="0" style="stop-color:#FFFFFF"/>
				<stop  offset="1" style="stop-color:#025F4E"/>
			</linearGradient>
			<line style="fill:none;stroke:url(#SVGID_12_);stroke-miterlimit:10;" x1="18.288" y1="94.235" x2="17.788" y2="94.234"/>
		</g>
		<g>
			<linearGradient id="SVGID_13_" gradientUnits="userSpaceOnUse" x1="35.4766" y1="119.8762" x2="90.3231" y2="105.1801">
				<stop  offset="0" style="stop-color:#FFFFFF"/>
				<stop  offset="1" style="stop-color:#025F4E"/>
			</linearGradient>
			<line style="fill:none;stroke:url(#SVGID_13_);stroke-miterlimit:10;" x1="90.214" y1="105.277" x2="89.714" y2="105.276"/>
			<linearGradient id="SVGID_14_" gradientUnits="userSpaceOnUse" x1="33.4392" y1="112.2722" x2="88.2856" y2="97.5761">
				<stop  offset="0" style="stop-color:#FFFFFF"/>
				<stop  offset="1" style="stop-color:#025F4E"/>
			</linearGradient>
			
				<line style="fill:none;stroke:url(#SVGID_14_);stroke-miterlimit:10;stroke-dasharray:0.9752,4.8762;" x1="84.838" y1="105.268" x2="34.613" y2="105.189"/>
			<linearGradient id="SVGID_15_" gradientUnits="userSpaceOnUse" x1="31.5659" y1="105.2813" x2="86.4124" y2="90.5852">
				<stop  offset="0" style="stop-color:#FFFFFF"/>
				<stop  offset="1" style="stop-color:#025F4E"/>
			</linearGradient>
			<line style="fill:none;stroke:url(#SVGID_15_);stroke-miterlimit:10;" x1="32.175" y1="105.185" x2="31.675" y2="105.185"/>
		</g>
	</g>
</g>
<path style="fill-rule:evenodd;clip-rule:evenodd;fill:#009177;" d="M48.479,101.063l10.561-4.049c0.296-0.114,0.624-0.114,0.921,0
	l10.564,4.049c0.892,0.342,1.832-0.373,1.741-1.324l-2.587-26.884c-0.063-0.66-0.618-1.163-1.28-1.163H50.602
	c-0.663,0-1.217,0.504-1.28,1.163l-2.584,26.884C46.646,100.69,47.587,101.405,48.479,101.063z"/>
<linearGradient id="SVGID_16_" gradientUnits="userSpaceOnUse" x1="37.04" y1="83.4947" x2="81.96" y2="38.5747">
	<stop  offset="0" style="stop-color:#A9F9E0"/>
	<stop  offset="1" style="stop-color:#27F0B1"/>
</linearGradient>
<path style="fill-rule:evenodd;clip-rule:evenodd;fill:url(#SVGID_16_);" d="M58.758,77.09l-17.392,9.144
	c-1.17,0.615-2.538-0.378-2.314-1.681l3.322-19.366c0.089-0.517-0.083-1.045-0.459-1.412l-14.07-13.715
	c-0.947-0.923-0.424-2.53,0.884-2.72l19.445-2.826c0.519-0.075,0.969-0.402,1.201-0.872l8.696-17.62c0.585-1.185,2.275-1.185,2.86,0
	l8.696,17.62c0.232,0.471,0.681,0.797,1.201,0.872l19.445,2.826c1.308,0.19,1.83,1.798,0.884,2.72l-14.07,13.715
	c-0.376,0.366-0.547,0.894-0.459,1.412l3.322,19.366c0.223,1.303-1.144,2.296-2.314,1.681L60.242,77.09
	C59.778,76.846,59.222,76.846,58.758,77.09z"/>
<path style="fill-rule:evenodd;clip-rule:evenodd;fill:none;stroke:#FFFFFF;stroke-width:2;stroke-linecap:round;stroke-linejoin:round;stroke-miterlimit:10;" d="
	M60.93,26.021l8.696,17.62c0.232,0.471,0.681,0.797,1.201,0.872l19.445,2.826"/>
</svg>
