<?xml version="1.0" encoding="iso-8859-1"?>
<!-- Generator: Adobe Illustrator 19.1.1, SVG Export Plug-In . SVG Version: 6.00 Build 0)  -->
<svg version="1.1" id="Layer_1" xmlns="http://www.w3.org/2000/svg" xmlns:xlink="http://www.w3.org/1999/xlink" x="0px" y="0px"
	 viewBox="0 0 120.773 120.773" style="enable-background:new 0 0 120.773 120.773;" xml:space="preserve">
<g>
	<defs>
		<rect id="SVGID_1_" y="0" width="120.773" height="120.773"/>
	</defs>
	<clipPath id="SVGID_2_">
		<use xlink:href="#SVGID_1_"  style="overflow:visible;"/>
	</clipPath>
	<path style="clip-path:url(#SVGID_2_);fill:#DE3F40;" d="M118.788,75.773c0.055-0.211,0.109-0.422,0.162-0.633
		c0.204-0.812,0.395-1.628,0.566-2.452c0.011-0.055,0.025-0.109,0.036-0.163c0.177-0.869,0.33-1.746,0.469-2.628
		c0.034-0.218,0.067-0.436,0.099-0.655c0.128-0.865,0.242-1.735,0.332-2.612c0.003-0.029,0.007-0.056,0.01-0.085
		c0.091-0.899,0.156-1.806,0.207-2.717c0.013-0.225,0.024-0.451,0.034-0.677c0.041-0.917,0.07-1.837,0.07-2.764
		c0-1.071-0.03-2.135-0.085-3.192c-0.018-0.35-0.055-0.695-0.079-1.044c-0.049-0.703-0.096-1.407-0.169-2.103
		c-0.043-0.417-0.106-0.828-0.158-1.243c-0.077-0.621-0.152-1.243-0.248-1.857c-0.069-0.438-0.155-0.87-0.233-1.304
		c-0.105-0.584-0.207-1.169-0.329-1.747c-0.093-0.444-0.202-0.883-0.305-1.324c-0.131-0.558-0.26-1.117-0.406-1.669
		c-0.118-0.445-0.249-0.885-0.377-1.326c-0.156-0.539-0.312-1.077-0.482-1.61c-0.141-0.441-0.293-0.877-0.444-1.313
		c-0.181-0.522-0.363-1.042-0.557-1.557c-0.164-0.436-0.337-0.866-0.511-1.297c-0.204-0.505-0.411-1.009-0.628-1.507
		c-0.079-0.18-0.147-0.366-0.228-0.546c-0.006,0-0.013-0.002-0.02-0.003C108.205,19.421,93.87,6.94,76.347,2.148
		c-0.002-0.006-0.004-0.012-0.006-0.018c-0.188-0.051-0.379-0.095-0.568-0.145c-0.211-0.055-0.422-0.109-0.633-0.162
		c-0.812-0.204-1.629-0.395-2.454-0.566c-0.054-0.011-0.107-0.025-0.161-0.036c-0.869-0.177-1.746-0.329-2.628-0.469
		c-0.218-0.034-0.436-0.067-0.654-0.099c-0.866-0.127-1.736-0.242-2.613-0.332c-0.029-0.003-0.056-0.007-0.085-0.01
		c-0.899-0.091-1.806-0.156-2.717-0.207c-0.225-0.013-0.451-0.024-0.677-0.034C62.234,0.029,61.314,0,60.387,0
		C27.036,0,0,27.036,0,60.387c0,33.35,27.036,60.386,60.387,60.386c1.07,0,2.134-0.03,3.191-0.085
		c0.35-0.018,0.695-0.055,1.044-0.079c0.703-0.049,1.407-0.096,2.103-0.169c0.417-0.043,0.828-0.106,1.243-0.158
		c0.621-0.078,1.243-0.152,1.858-0.248c0.437-0.069,0.869-0.155,1.303-0.233c0.584-0.105,1.169-0.207,1.747-0.329
		c0.444-0.093,0.883-0.202,1.324-0.305c0.558-0.131,1.117-0.26,1.669-0.406c0.446-0.118,0.885-0.249,1.326-0.377
		c0.539-0.156,1.077-0.312,1.61-0.482c0.441-0.141,0.877-0.294,1.313-0.444c0.522-0.181,1.042-0.363,1.557-0.557
		c0.435-0.164,0.865-0.337,1.295-0.51c0.507-0.205,1.011-0.412,1.511-0.63c0.18-0.078,0.365-0.147,0.544-0.227
		c0.001-0.007,0.002-0.013,0.003-0.02c16.324-7.309,28.805-21.644,33.597-39.167c0.006-0.002,0.012-0.004,0.018-0.006
		C118.694,76.153,118.738,75.962,118.788,75.773"/>
	<polygon style="clip-path:url(#SVGID_2_);fill:#FFFFFF;" points="71.457,34.59 84.081,39.384 75.546,49.851 74.904,47.456 
		48.346,54.406 45.54,43.936 72.099,36.986 	"/>
	<polygon style="clip-path:url(#SVGID_2_);fill:#FFFFFF;" points="84.316,48.693 91.596,51.458 86.674,57.494 86.304,56.113 
		70.988,60.121 69.37,54.083 84.686,50.074 	"/>
	<polygon style="clip-path:url(#SVGID_2_);fill:#FFFFFF;" points="89.178,58.094 101.802,62.888 93.267,73.355 92.625,70.96 
		66.067,77.91 63.261,67.44 89.82,60.49 	"/>
</g>
<g>
	<defs>
		<path id="SVGID_3_" d="M26.609,61.744c0,12.765,10.349,23.114,23.114,23.114s23.113-10.349,23.113-23.114
			c0-12.766-10.348-23.114-23.113-23.114S26.609,48.978,26.609,61.744"/>
	</defs>
	<clipPath id="SVGID_4_">
		<use xlink:href="#SVGID_3_"  style="overflow:visible;"/>
	</clipPath>
	
		<linearGradient id="SVGID_5_" gradientUnits="userSpaceOnUse" x1="0" y1="120.773" x2="1" y2="120.773" gradientTransform="matrix(32.6877 -32.6877 -32.6877 -32.6877 3981.1758 4025.8845)">
		<stop  offset="0" style="stop-color:#EF9F9F"/>
		<stop  offset="1" style="stop-color:#DE3F40"/>
	</linearGradient>
	<polygon style="clip-path:url(#SVGID_4_);fill:url(#SVGID_5_);" points="3.495,61.744 49.722,15.517 95.95,61.744 49.722,107.972 	
		"/>
</g>
<g>
	<defs>
		<rect id="SVGID_6_" y="0" width="120.773" height="120.773"/>
	</defs>
	<clipPath id="SVGID_7_">
		<use xlink:href="#SVGID_6_"  style="overflow:visible;"/>
	</clipPath>
	
		<polyline style="clip-path:url(#SVGID_7_);fill:none;stroke:#FFFFFF;stroke-width:2;stroke-linecap:round;stroke-linejoin:round;stroke-miterlimit:10;" points="
		49.723,47.069 49.723,61.744 59.353,61.744 	"/>
</g>
</svg>
