<?xml version="1.0" encoding="iso-8859-1"?>
<!-- Generator: Adobe Illustrator 19.1.1, SVG Export Plug-In . SVG Version: 6.00 Build 0)  -->
<svg version="1.1" id="Layer_1" xmlns="http://www.w3.org/2000/svg" xmlns:xlink="http://www.w3.org/1999/xlink" x="0px" y="0px"
	 viewBox="0 0 120.773 120.773" style="enable-background:new 0 0 120.773 120.773;" xml:space="preserve">
<g>
	<defs>
		<rect id="SVGID_1_" x="1.347" y="1.346" width="119" height="119"/>
	</defs>
	<clipPath id="SVGID_2_">
		<use xlink:href="#SVGID_1_"  style="overflow:visible;"/>
	</clipPath>
	<path style="clip-path:url(#SVGID_2_);fill:#613D7D;" d="M60.847,120.346c32.86,0,59.499-26.639,59.499-59.501
		c0-32.86-26.639-59.498-59.499-59.498S1.346,27.985,1.346,60.846C1.346,93.707,27.986,120.346,60.847,120.346"/>
	
		<linearGradient id="SVGID_3_" gradientUnits="userSpaceOnUse" x1="17.8121" y1="102.7334" x2="19.2008" y2="102.7334" gradientTransform="matrix(-64.6148 37.3054 37.3054 64.6148 -2582.6479 -7279.2139)">
		<stop  offset="0" style="stop-color:#FFFFFF"/>
		<stop  offset="1" style="stop-color:#0A7FC2"/>
	</linearGradient>
	<polyline style="clip-path:url(#SVGID_2_);fill:url(#SVGID_3_);" points="98.733,23.384 98.242,23.876 98.242,23.876 
		98.733,23.384 	"/>
	
		<linearGradient id="SVGID_4_" gradientUnits="userSpaceOnUse" x1="17.8121" y1="102.7809" x2="19.2008" y2="102.7809" gradientTransform="matrix(-64.6148 37.3054 37.3054 64.6148 -2577.5137 -7270.3213)">
		<stop  offset="0" style="stop-color:#FFFFFF"/>
		<stop  offset="1" style="stop-color:#0A7FC2"/>
	</linearGradient>
	<path style="clip-path:url(#SVGID_2_);fill:url(#SVGID_4_);" d="M29.52,92.775l-0.968,0.97l0,0L29.52,92.775z M35.327,86.953
		l-0.968,0.97l0,0L35.327,86.953z M41.135,81.13l-0.968,0.97l0,0L41.135,81.13z M46.943,75.308l-0.968,0.97l0,0L46.943,75.308z
		 M52.75,69.485l-0.968,0.97l0,0L52.75,69.485z M58.558,63.663l-0.968,0.97l0,0L58.558,63.663z M64.365,57.84l-0.968,0.97l0,0
		L64.365,57.84z M70.173,52.018l-0.968,0.97l0,0L70.173,52.018z M75.98,46.195l-0.968,0.97l0,0L75.98,46.195z M81.788,40.372
		l-0.968,0.97l0,0L81.788,40.372z M87.596,34.55l-0.968,0.97l0,0L87.596,34.55z M93.403,28.727l-0.968,0.97l0,0L93.403,28.727z"/>
	
		<linearGradient id="SVGID_5_" gradientUnits="userSpaceOnUse" x1="17.8121" y1="102.837" x2="19.2008" y2="102.837" gradientTransform="matrix(-64.6148 37.3054 37.3054 64.6148 -2572.7004 -7261.9844)">
		<stop  offset="0" style="stop-color:#FFFFFF"/>
		<stop  offset="1" style="stop-color:#0A7FC2"/>
	</linearGradient>
	<polyline style="clip-path:url(#SVGID_2_);fill:url(#SVGID_5_);" points="23.712,98.599 23.22,99.091 23.22,99.091 23.712,98.599 	
		"/>
	
		<linearGradient id="SVGID_6_" gradientUnits="userSpaceOnUse" x1="17.8014" y1="102.7743" x2="19.1901" y2="102.7743" gradientTransform="matrix(-62.9386 36.3376 36.3376 62.9386 -2508.5076 -7083.2632)">
		<stop  offset="0" style="stop-color:#FFFFFF"/>
		<stop  offset="1" style="stop-color:#0A7FC2"/>
	</linearGradient>
	<polyline style="clip-path:url(#SVGID_2_);fill:url(#SVGID_6_);" points="105.466,32.08 104.974,32.571 104.974,32.571 
		105.466,32.08 	"/>
	
		<linearGradient id="SVGID_7_" gradientUnits="userSpaceOnUse" x1="17.8014" y1="102.8218" x2="19.1901" y2="102.8218" gradientTransform="matrix(-62.9386 36.3376 36.3376 62.9386 -2503.5034 -7074.5952)">
		<stop  offset="0" style="stop-color:#FFFFFF"/>
		<stop  offset="1" style="stop-color:#0A7FC2"/>
	</linearGradient>
	<path style="clip-path:url(#SVGID_2_);fill:url(#SVGID_7_);" d="M38.079,99.673l-0.942,0.945l0,0L38.079,99.673z M43.732,94.002
		l-0.942,0.945l0,0L43.732,94.002z M49.385,88.332l-0.942,0.945l0,0L49.385,88.332z M55.038,82.661l-0.942,0.945l0,0L55.038,82.661z
		 M60.691,76.991l-0.942,0.945l0,0L60.691,76.991z M66.345,71.32l-0.942,0.945l0,0L66.345,71.32z M71.998,65.65l-0.942,0.945l0,0
		L71.998,65.65z M77.651,59.979l-0.942,0.945l0,0L77.651,59.979z M83.304,54.308l-0.942,0.945l0,0L83.304,54.308z M88.957,48.638
		l-0.942,0.945l0,0L88.957,48.638z M94.611,42.967l-0.942,0.945l0,0L94.611,42.967z M100.264,37.297l-0.942,0.945l0,0
		L100.264,37.297z"/>
	
		<linearGradient id="SVGID_8_" gradientUnits="userSpaceOnUse" x1="17.8014" y1="102.878" x2="19.1901" y2="102.878" gradientTransform="matrix(-62.9386 36.3376 36.3376 62.9386 -2498.812 -7066.4697)">
		<stop  offset="0" style="stop-color:#FFFFFF"/>
		<stop  offset="1" style="stop-color:#0A7FC2"/>
	</linearGradient>
	<polyline style="clip-path:url(#SVGID_2_);fill:url(#SVGID_8_);" points="32.422,105.346 31.93,105.838 31.93,105.838 
		32.422,105.346 	"/>
	
		<linearGradient id="SVGID_9_" gradientUnits="userSpaceOnUse" x1="17.7848" y1="102.8228" x2="19.1735" y2="102.8228" gradientTransform="matrix(-57.5049 33.2005 33.2005 57.5049 -2280.095 -6461.0122)">
		<stop  offset="0" style="stop-color:#FFFFFF"/>
		<stop  offset="1" style="stop-color:#0A7FC2"/>
	</linearGradient>
	<polyline style="clip-path:url(#SVGID_2_);fill:url(#SVGID_9_);" points="110.756,42.281 110.265,42.772 110.265,42.772 
		110.756,42.281 	"/>
	
		<linearGradient id="SVGID_10_" gradientUnits="userSpaceOnUse" x1="17.7848" y1="102.8695" x2="19.1735" y2="102.8695" gradientTransform="matrix(-57.5049 33.2005 33.2005 57.5049 -2275.5029 -6453.0586)">
		<stop  offset="0" style="stop-color:#FFFFFF"/>
		<stop  offset="1" style="stop-color:#0A7FC2"/>
	</linearGradient>
	<path style="clip-path:url(#SVGID_2_);fill:url(#SVGID_10_);" d="M50.195,103.015l-1.018,1.021l0,0L50.195,103.015z M56.304,96.888
		l-1.018,1.021l0,0L56.304,96.888z M62.413,90.762l-1.018,1.021l0,0L62.413,90.762z M68.522,84.636l-1.018,1.021l0,0L68.522,84.636z
		 M74.63,78.51l-1.018,1.021l0,0L74.63,78.51z M80.739,72.384l-1.018,1.021l0,0L80.739,72.384z M86.848,66.257l-1.018,1.021l0,0
		L86.848,66.257z M92.957,60.131l-1.018,1.021l0,0L92.957,60.131z M99.066,54.005l-1.018,1.021l0,0L99.066,54.005z M105.174,47.879
		l-1.018,1.021l0,0L105.174,47.879z"/>
	
		<linearGradient id="SVGID_11_" gradientUnits="userSpaceOnUse" x1="17.7848" y1="102.9264" x2="19.1735" y2="102.9264" gradientTransform="matrix(-57.5049 33.2005 33.2005 57.5049 -2271.2485 -6445.6899)">
		<stop  offset="0" style="stop-color:#FFFFFF"/>
		<stop  offset="1" style="stop-color:#0A7FC2"/>
	</linearGradient>
	<polyline style="clip-path:url(#SVGID_2_);fill:url(#SVGID_11_);" points="44.079,109.147 43.588,109.639 43.588,109.639 
		44.079,109.147 	"/>
	
		<linearGradient id="SVGID_12_" gradientUnits="userSpaceOnUse" x1="17.7724" y1="102.8902" x2="19.1611" y2="102.8902" gradientTransform="matrix(-50.1091 28.9305 28.9305 50.1091 -1972.4045 -5614.8833)">
		<stop  offset="0" style="stop-color:#FFFFFF"/>
		<stop  offset="1" style="stop-color:#0A7FC2"/>
	</linearGradient>
	<polyline style="clip-path:url(#SVGID_2_);fill:url(#SVGID_12_);" points="113.498,55.028 113.007,55.52 113.007,55.52 
		113.498,55.028 	"/>
	
		<linearGradient id="SVGID_13_" gradientUnits="userSpaceOnUse" x1="17.7724" y1="102.9363" x2="19.1611" y2="102.9363" gradientTransform="matrix(-50.1091 28.9305 28.9305 50.1091 -1968.3961 -5607.9404)">
		<stop  offset="0" style="stop-color:#FFFFFF"/>
		<stop  offset="1" style="stop-color:#0A7FC2"/>
	</linearGradient>
	<path style="clip-path:url(#SVGID_2_);fill:url(#SVGID_13_);" d="M61.338,107.33l-0.975,0.977l0,0L61.338,107.33z M67.188,101.464
		l-0.975,0.977l0,0L67.188,101.464z M73.037,95.599l-0.975,0.977l0,0L73.037,95.599z M78.887,89.734l-0.975,0.977l0,0L78.887,89.734
		z M84.736,83.869l-0.975,0.977l0,0L84.736,83.869z M90.585,78.004l-0.975,0.977l0,0L90.585,78.004z M96.435,72.138l-0.975,0.977
		l0,0L96.435,72.138z M102.284,66.273l-0.975,0.977l0,0L102.284,66.273z M108.133,60.408l-0.975,0.977l0,0L108.133,60.408z"/>
	
		<linearGradient id="SVGID_14_" gradientUnits="userSpaceOnUse" x1="17.7724" y1="102.9936" x2="19.1611" y2="102.9936" gradientTransform="matrix(-50.1091 28.9305 28.9305 50.1091 -1964.7108 -5601.5571)">
		<stop  offset="0" style="stop-color:#FFFFFF"/>
		<stop  offset="1" style="stop-color:#0A7FC2"/>
	</linearGradient>
	<polyline style="clip-path:url(#SVGID_2_);fill:url(#SVGID_14_);" points="55.49,113.194 54.999,113.686 54.999,113.686 
		55.49,113.194 	"/>
	
		<linearGradient id="SVGID_15_" gradientUnits="userSpaceOnUse" x1="17.7508" y1="103.0354" x2="19.1395" y2="103.0354" gradientTransform="matrix(-35.4736 20.4807 20.4807 35.4736 -1368.9271 -3946.0054)">
		<stop  offset="0" style="stop-color:#FFFFFF"/>
		<stop  offset="1" style="stop-color:#0A7FC2"/>
	</linearGradient>
	<polyline style="clip-path:url(#SVGID_2_);fill:url(#SVGID_15_);" points="111.421,72.592 110.93,73.083 110.93,73.083 
		111.421,72.592 	"/>
	
		<linearGradient id="SVGID_16_" gradientUnits="userSpaceOnUse" x1="17.7508" y1="103.0788" x2="19.1395" y2="103.0788" gradientTransform="matrix(-35.4736 20.4807 20.4807 35.4736 -1366.0529 -3941.0266)">
		<stop  offset="0" style="stop-color:#FFFFFF"/>
		<stop  offset="1" style="stop-color:#0A7FC2"/>
	</linearGradient>
	<path style="clip-path:url(#SVGID_2_);fill:url(#SVGID_16_);" d="M76.486,107.637l-0.984,0.987l0,0L76.486,107.637z
		 M82.391,101.713l-0.984,0.987l0,0L82.391,101.713z M88.296,95.789l-0.984,0.987l0,0L88.296,95.789z M94.201,89.866l-0.984,0.987
		l0,0L94.201,89.866z M100.106,83.942l-0.984,0.987l0,0L100.106,83.942z M106.011,78.019l-0.984,0.987l0,0L106.011,78.019z"/>
	
		<linearGradient id="SVGID_17_" gradientUnits="userSpaceOnUse" x1="17.7508" y1="103.1383" x2="19.1395" y2="103.1383" gradientTransform="matrix(-35.4736 20.4807 20.4807 35.4736 -1363.5051 -3936.614)">
		<stop  offset="0" style="stop-color:#FFFFFF"/>
		<stop  offset="1" style="stop-color:#0A7FC2"/>
	</linearGradient>
	<polyline style="clip-path:url(#SVGID_2_);fill:url(#SVGID_17_);" points="70.583,113.559 70.092,114.05 70.092,114.05 
		70.583,113.559 	"/>
</g>
<g>
	<defs>
		<path id="SVGID_18_" d="M52.644,37.053c-8.576,0-15.591,7.014-15.591,15.591v16.402c0,8.576,7.014,15.593,15.591,15.593h16.403
			c8.578,0,15.592-7.017,15.592-15.593V52.644c0-8.576-7.014-15.591-15.592-15.591H52.644z"/>
	</defs>
	<clipPath id="SVGID_19_">
		<use xlink:href="#SVGID_18_"  style="overflow:visible;"/>
	</clipPath>
	
		<linearGradient id="SVGID_20_" gradientUnits="userSpaceOnUse" x1="17.789" y1="102.7564" x2="19.1777" y2="102.7564" gradientTransform="matrix(27.6719 -27.6719 -27.6719 -27.6719 2392.8403 3415.781)">
		<stop  offset="0" style="stop-color:#613D7D"/>
		<stop  offset="1" style="stop-color:#9077A4"/>
	</linearGradient>
	<polygon style="clip-path:url(#SVGID_19_);fill:url(#SVGID_20_);" points="13.261,60.846 60.847,13.26 108.432,60.846 
		60.846,108.432 	"/>
</g>
<g>
	<defs>
		<rect id="SVGID_21_" x="1.347" y="1.346" width="119" height="119"/>
	</defs>
	<clipPath id="SVGID_22_">
		<use xlink:href="#SVGID_21_"  style="overflow:visible;"/>
	</clipPath>
	<path style="clip-path:url(#SVGID_22_);fill:#FFFFFF;" d="M50.425,48.889l21.608,7.193c0.635,0.207,0.979,0.894,0.769,1.533
		c-0.103,0.308-0.319,0.55-0.59,0.689v0.004l-6.305,3.311l6.088,6.091c0.468,0.475,0.468,1.24-0.006,1.714l0.006,0.004l-2.568,2.563
		c-0.472,0.476-1.247,0.476-1.719,0l-0.056-0.062l-6.027-6.023l-3.315,6.307c-0.312,0.593-1.05,0.822-1.643,0.51
		c-0.308-0.161-0.517-0.436-0.604-0.749L48.89,50.421c-0.21-0.635,0.136-1.321,0.771-1.532
		C49.921,48.803,50.182,48.811,50.425,48.889"/>
</g>
</svg>
