<?xml version="1.0" encoding="iso-8859-1"?>
<!-- Generator: Adobe Illustrator 19.1.1, SVG Export Plug-In . SVG Version: 6.00 Build 0)  -->
<svg version="1.1" id="Layer_1" xmlns="http://www.w3.org/2000/svg" xmlns:xlink="http://www.w3.org/1999/xlink" x="0px" y="0px"
	 viewBox="0 0 92.021 92.023" style="enable-background:new 0 0 92.021 92.023;" xml:space="preserve">
<g>
	<defs>
		<rect id="SVGID_1_" y="0" width="92.021" height="92.023"/>
	</defs>
	<clipPath id="SVGID_2_">
		<use xlink:href="#SVGID_1_"  style="overflow:visible;"/>
	</clipPath>
	<path style="clip-path:url(#SVGID_2_);fill:#FBCF52;" d="M90.442,34.104c6.576,24.541-7.987,49.765-32.525,56.34
		c-24.54,6.575-49.762-7.989-56.338-32.529C-4.996,33.377,9.566,8.154,34.105,1.579C58.644-4.996,83.867,9.566,90.442,34.104"/>
	<path style="clip-path:url(#SVGID_2_);fill:#FFFFFF;" d="M28.459,49.69c-0.4,0.681-0.629,1.474-0.629,2.321
		c0,2.278,1.658,4.168,3.832,4.529l0.022-0.002c0.5,7.477,6.723,13.387,14.327,13.387c7.603,0,13.826-5.909,14.326-13.386
		l0.022,0.001c2.175-0.361,3.833-2.251,3.833-4.529c0-0.847-0.23-1.64-0.63-2.321"/>
</g>
<g>
	<defs>
		<path id="SVGID_3_" d="M44.023,24.086v9.77c-1.097,0-1.988-0.889-1.988-1.987v-7.364v0.001
			c-8.491,1.825-14.855,9.374-14.855,18.41c0,0.519,0.036,1.028,0.077,1.537c-1.29,0.708-2.033,1.496-2.033,2.331
			c0,1.066,1.195,2.057,3.23,2.899c3.746,1.549,9.967,2.583,17.557,2.583c7.589,0,13.81-1.034,17.556-2.583
			c2.035-0.842,3.23-1.833,3.23-2.899c0-0.835-0.743-1.623-2.034-2.331c0.042-0.509,0.078-1.018,0.078-1.537
			c0-9.036-6.364-16.585-14.855-18.41l-0.001-0.001v7.364c0,1.098-0.89,1.987-1.987,1.987v-9.77c0-1.098-0.89-1.988-1.987-1.988
			C44.913,22.098,44.023,22.988,44.023,24.086"/>
	</defs>
	<clipPath id="SVGID_4_">
		<use xlink:href="#SVGID_3_"  style="overflow:visible;"/>
	</clipPath>
	
		<linearGradient id="SVGID_5_" gradientUnits="userSpaceOnUse" x1="2.579478e-005" y1="92.0227" x2="1" y2="92.0227" gradientTransform="matrix(0 -30.1688 -30.1688 0 2822.228 52.2665)">
		<stop  offset="0" style="stop-color:#FACF58"/>
		<stop  offset="1" style="stop-color:#EB9722"/>
	</linearGradient>
	<rect x="25.224" y="22.098" style="clip-path:url(#SVGID_4_);fill:url(#SVGID_5_);" width="41.573" height="30.168"/>
</g>
<g>
	<defs>
		<rect id="SVGID_6_" y="0" width="92.021" height="92.023"/>
	</defs>
	<clipPath id="SVGID_7_">
		<use xlink:href="#SVGID_6_"  style="overflow:visible;"/>
	</clipPath>
	
		<path style="clip-path:url(#SVGID_7_);fill:none;stroke:#FFFFFF;stroke-linecap:round;stroke-linejoin:round;stroke-miterlimit:10;" d="
		M64.763,44.452c-3.746,1.55-9.968,2.584-17.557,2.584"/>
	<path style="clip-path:url(#SVGID_7_);fill:#EB9722;" d="M53.202,56.076c0,0.707-0.573,1.28-1.28,1.28
		c-0.706,0-1.279-0.573-1.279-1.28c0-0.707,0.573-1.28,1.279-1.28C52.629,54.796,53.202,55.369,53.202,56.076"/>
	<path style="clip-path:url(#SVGID_7_);fill:#EB9722;" d="M38.819,56.076c0,0.707,0.573,1.28,1.28,1.28
		c0.706,0,1.279-0.573,1.279-1.28c0-0.707-0.573-1.28-1.279-1.28C39.392,54.796,38.819,55.369,38.819,56.076"/>
	<path style="clip-path:url(#SVGID_7_);fill:#EB9722;" d="M51.063,69.412c0.044-0.071,0.074-0.15,0.077-0.239
		c0-0.005,0.004-0.008,0.004-0.013l-0.001-2.311v-1.081c0-1.896-1.543-3.438-3.438-3.438h-3.389c-1.896,0-3.438,1.542-3.438,3.438
		v0.971v2.418v0.003c0,0.002,0.001,0.003,0.001,0.005c0.002,0.093,0.034,0.176,0.08,0.25c0.012,0.02,0.023,0.037,0.038,0.055
		c0.054,0.067,0.121,0.12,0.203,0.151c0.006,0.003,0.01,0.01,0.016,0.013c1.539,0.524,3.153,0.79,4.794,0.79
		c1.642,0,3.255-0.266,4.795-0.79c0.007-0.003,0.01-0.01,0.017-0.013c0.081-0.031,0.147-0.084,0.201-0.149
		C51.039,69.452,51.05,69.434,51.063,69.412 M44.316,63.33h3.389c1.344,0,2.438,1.094,2.438,2.438v0.765
		c-0.638,0.294-2.385,1.019-4.133,1.019c-1.754,0-3.51-0.802-4.132-1.116v-0.668C41.878,64.424,42.971,63.33,44.316,63.33"/>
</g>
</svg>
