<?xml version="1.0" encoding="iso-8859-1"?>
<!-- Generator: Adobe Illustrator 19.1.1, SVG Export Plug-In . SVG Version: 6.00 Build 0)  -->
<svg version="1.1" id="Layer_1" xmlns="http://www.w3.org/2000/svg" xmlns:xlink="http://www.w3.org/1999/xlink" x="0px" y="0px"
	 viewBox="0 0 123.919 123.919" style="enable-background:new 0 0 123.919 123.919;" xml:space="preserve">
<g>
	<defs>
		<rect id="SVGID_1_" y="0" width="123.919" height="123.919"/>
	</defs>
	<clipPath id="SVGID_2_">
		<use xlink:href="#SVGID_1_"  style="overflow:visible;"/>
	</clipPath>
	<path style="clip-path:url(#SVGID_2_);fill:#27F0B1;" d="M123.919,61.959c0,34.219-27.74,61.96-61.96,61.96
		C27.74,123.919,0,96.178,0,61.959s27.74-61.96,61.959-61.96C96.179-0.001,123.919,27.74,123.919,61.959"/>
	<path style="clip-path:url(#SVGID_2_);fill:#009177;" d="M87.112,90.939c0,2.77-2.248,5.019-5.021,5.019H41.826
		c-2.772,0-5.019-2.249-5.019-5.019V32.98c0-2.772,2.247-5.019,5.019-5.019h40.265c2.773,0,5.021,2.247,5.021,5.019V90.939z"/>
	<path style="clip-path:url(#SVGID_2_);fill:#FFFFFF;" d="M63.397,91.613c0,0.794-0.643,1.44-1.439,1.44
		c-0.795,0-1.438-0.646-1.438-1.44c0-0.795,0.643-1.441,1.438-1.441C62.754,90.172,63.397,90.818,63.397,91.613"/>
	<path style="clip-path:url(#SVGID_2_);fill:#FFFFFF;" d="M62.898,32.302c0,0.519-0.421,0.939-0.94,0.939
		c-0.517,0-0.94-0.42-0.94-0.939c0-0.519,0.423-0.94,0.94-0.94C62.477,31.362,62.898,31.783,62.898,32.302"/>
	<polygon style="clip-path:url(#SVGID_2_);fill:#EFF0F1;" points="83.72,87.234 83.72,72.087 53.238,36.685 40.196,36.685 
		40.196,87.234 	"/>
	<polygon style="clip-path:url(#SVGID_2_);fill:#FFFFFF;" points="83.72,36.685 53.238,36.685 83.72,72.087 	"/>
</g>
</svg>
