<?xml version="1.0" encoding="iso-8859-1"?>
<!-- Generator: Adobe Illustrator 19.1.1, SVG Export Plug-In . SVG Version: 6.00 Build 0)  -->
<svg version="1.1" id="Layer_1" xmlns="http://www.w3.org/2000/svg" xmlns:xlink="http://www.w3.org/1999/xlink" x="0px" y="0px"
	 viewBox="0 0 120.773 120.773" style="enable-background:new 0 0 120.773 120.773;" xml:space="preserve">
<circle style="fill:#FBCF52;" cx="60.701" cy="61.117" r="59.5"/>
<g>
	<g>
		<g>
			<linearGradient id="SVGID_1_" gradientUnits="userSpaceOnUse" x1="61.0971" y1="7.7284" x2="34.3068" y2="107.711">
				<stop  offset="0" style="stop-color:#DE3F40"/>
				<stop  offset="1" style="stop-color:#EB9722"/>
			</linearGradient>
			<line style="fill:none;stroke:url(#SVGID_1_);stroke-miterlimit:10;" x1="61.001" y1="7.837" x2="61.001" y2="8.337"/>
			<linearGradient id="SVGID_2_" gradientUnits="userSpaceOnUse" x1="74.7755" y1="11.3935" x2="47.9852" y2="111.3761">
				<stop  offset="0" style="stop-color:#DE3F40"/>
				<stop  offset="1" style="stop-color:#EB9722"/>
			</linearGradient>
			
				<line style="fill:none;stroke:url(#SVGID_2_);stroke-miterlimit:10;stroke-dasharray:0.99,4.9499;" x1="61.008" y1="13.287" x2="61.134" y2="111.791"/>
			<linearGradient id="SVGID_3_" gradientUnits="userSpaceOnUse" x1="87.8321" y1="14.892" x2="61.0418" y2="114.8747">
				<stop  offset="0" style="stop-color:#DE3F40"/>
				<stop  offset="1" style="stop-color:#EB9722"/>
			</linearGradient>
			<line style="fill:none;stroke:url(#SVGID_3_);stroke-miterlimit:10;" x1="61.138" y1="114.266" x2="61.138" y2="114.766"/>
		</g>
		<g>
			<linearGradient id="SVGID_4_" gradientUnits="userSpaceOnUse" x1="72.007" y1="9.117" x2="45.9124" y2="106.5034">
				<stop  offset="0" style="stop-color:#DE3F40"/>
				<stop  offset="1" style="stop-color:#EB9722"/>
			</linearGradient>
			<line style="fill:none;stroke:url(#SVGID_4_);stroke-miterlimit:10;" x1="71.91" y1="9.226" x2="71.911" y2="9.726"/>
			<linearGradient id="SVGID_5_" gradientUnits="userSpaceOnUse" x1="85.3578" y1="12.6943" x2="59.2632" y2="110.0807">
				<stop  offset="0" style="stop-color:#DE3F40"/>
				<stop  offset="1" style="stop-color:#EB9722"/>
			</linearGradient>
			
				<line style="fill:none;stroke:url(#SVGID_5_);stroke-miterlimit:10;stroke-dasharray:1.0213,5.1065;" x1="71.919" y1="14.832" x2="72.064" y2="110.324"/>
			<linearGradient id="SVGID_6_" gradientUnits="userSpaceOnUse" x1="98.0667" y1="16.0997" x2="71.9721" y2="113.4861">
				<stop  offset="0" style="stop-color:#DE3F40"/>
				<stop  offset="1" style="stop-color:#EB9722"/>
			</linearGradient>
			<line style="fill:none;stroke:url(#SVGID_6_);stroke-miterlimit:10;" x1="72.068" y1="112.877" x2="72.069" y2="113.377"/>
		</g>
		<g>
			<linearGradient id="SVGID_7_" gradientUnits="userSpaceOnUse" x1="82.9609" y1="12.5887" x2="59.1214" y2="101.559">
				<stop  offset="0" style="stop-color:#DE3F40"/>
				<stop  offset="1" style="stop-color:#EB9722"/>
			</linearGradient>
			<line style="fill:none;stroke:url(#SVGID_7_);stroke-miterlimit:10;" x1="82.864" y1="12.698" x2="82.865" y2="13.198"/>
			<linearGradient id="SVGID_8_" gradientUnits="userSpaceOnUse" x1="95.1629" y1="15.8583" x2="71.3234" y2="104.8286">
				<stop  offset="0" style="stop-color:#DE3F40"/>
				<stop  offset="1" style="stop-color:#EB9722"/>
			</linearGradient>
			
				<line style="fill:none;stroke:url(#SVGID_8_);stroke-miterlimit:10;stroke-dasharray:0.9908,4.9539;" x1="82.872" y1="18.151" x2="82.995" y2="104.845"/>
			<linearGradient id="SVGID_9_" gradientUnits="userSpaceOnUse" x1="106.7424" y1="18.961" x2="82.9029" y2="107.9313">
				<stop  offset="0" style="stop-color:#DE3F40"/>
				<stop  offset="1" style="stop-color:#EB9722"/>
			</linearGradient>
			<line style="fill:none;stroke:url(#SVGID_9_);stroke-miterlimit:10;" x1="82.999" y1="107.322" x2="82.999" y2="107.822"/>
		</g>
		<g>
			<linearGradient id="SVGID_10_" gradientUnits="userSpaceOnUse" x1="93.9138" y1="19.6648" x2="73.1437" y2="97.18">
				<stop  offset="0" style="stop-color:#DE3F40"/>
				<stop  offset="1" style="stop-color:#EB9722"/>
			</linearGradient>
			<line style="fill:none;stroke:url(#SVGID_10_);stroke-miterlimit:10;" x1="93.817" y1="19.774" x2="93.818" y2="20.274"/>
			<linearGradient id="SVGID_11_" gradientUnits="userSpaceOnUse" x1="104.5682" y1="22.5196" x2="83.798" y2="100.0348">
				<stop  offset="0" style="stop-color:#DE3F40"/>
				<stop  offset="1" style="stop-color:#EB9722"/>
			</linearGradient>
			
				<line style="fill:none;stroke:url(#SVGID_11_);stroke-miterlimit:10;stroke-dasharray:0.986,4.9302;" x1="93.825" y1="25.204" x2="93.925" y2="99.65"/>
			<linearGradient id="SVGID_12_" gradientUnits="userSpaceOnUse" x1="114.6032" y1="25.2085" x2="93.833" y2="102.7237">
				<stop  offset="0" style="stop-color:#DE3F40"/>
				<stop  offset="1" style="stop-color:#EB9722"/>
			</linearGradient>
			<line style="fill:none;stroke:url(#SVGID_12_);stroke-miterlimit:10;" x1="93.929" y1="102.115" x2="93.929" y2="102.615"/>
		</g>
		<g>
			<linearGradient id="SVGID_13_" gradientUnits="userSpaceOnUse" x1="104.8645" y1="33.5515" x2="90.1684" y2="88.3979">
				<stop  offset="0" style="stop-color:#DE3F40"/>
				<stop  offset="1" style="stop-color:#EB9722"/>
			</linearGradient>
			<line style="fill:none;stroke:url(#SVGID_13_);stroke-miterlimit:10;" x1="104.768" y1="33.66" x2="104.769" y2="34.16"/>
			<linearGradient id="SVGID_14_" gradientUnits="userSpaceOnUse" x1="112.4685" y1="35.589" x2="97.7724" y2="90.4354">
				<stop  offset="0" style="stop-color:#DE3F40"/>
				<stop  offset="1" style="stop-color:#EB9722"/>
			</linearGradient>
			
				<line style="fill:none;stroke:url(#SVGID_14_);stroke-miterlimit:10;stroke-dasharray:0.9752,4.8762;" x1="104.776" y1="39.037" x2="104.855" y2="89.262"/>
			<linearGradient id="SVGID_15_" gradientUnits="userSpaceOnUse" x1="119.4594" y1="37.4622" x2="104.7634" y2="92.3086">
				<stop  offset="0" style="stop-color:#DE3F40"/>
				<stop  offset="1" style="stop-color:#EB9722"/>
			</linearGradient>
			<line style="fill:none;stroke:url(#SVGID_15_);stroke-miterlimit:10;" x1="104.859" y1="91.7" x2="104.86" y2="92.2"/>
		</g>
	</g>
</g>
<g>
	<path style="fill:#FFFFFF;stroke:#FACF58;stroke-width:2;stroke-miterlimit:10;" d="M38.683,30.883
		c4.598,0,8.784,1.883,11.819,4.918l0.007,0.005l0.006-0.005c3.033,3.032,4.918,7.224,4.918,11.834v14.522h-7.84V47.636
		c0-2.447-1.005-4.675-2.62-6.29l0.007-0.008c-1.615-1.611-3.846-2.613-6.297-2.613c-2.373,0-4.535,0.934-6.138,2.453l-0.154,0.168
		c-1.615,1.615-2.62,3.843-2.62,6.29v7.552h-7.84v-7.552c0-4.61,1.885-8.803,4.918-11.834c0.074-0.076,0.154-0.149,0.234-0.218
		C30.098,32.679,34.192,30.883,38.683,30.883z"/>
	<linearGradient id="SVGID_16_" gradientUnits="userSpaceOnUse" x1="42.6392" y1="70.053" x2="86.0523" y2="70.053">
		<stop  offset="0" style="stop-color:#EB9722"/>
		<stop  offset="1" style="stop-color:#F1B664"/>
	</linearGradient>
	<path style="fill-rule:evenodd;clip-rule:evenodd;fill:url(#SVGID_16_);" d="M47.081,54.309h34.527
		c2.445,0,4.444,1.999,4.444,4.444v22.6c0,2.445-1.999,4.444-4.444,4.444H47.081c-2.443,0-4.442-1.999-4.442-4.444v-22.6
		C42.639,56.308,44.638,54.309,47.081,54.309z"/>
	<path style="fill-rule:evenodd;clip-rule:evenodd;fill:#FFFFFF;" d="M67.789,72.39v4.995c0,1.893-1.548,3.443-3.443,3.443l0,0
		c-1.893,0-3.443-1.548-3.443-3.443V72.39c-1.617-1.102-2.68-2.959-2.68-5.064c0-3.381,2.743-6.123,6.122-6.123
		s6.121,2.741,6.121,6.123C70.467,69.431,69.406,71.289,67.789,72.39z"/>
	<path style="fill-rule:evenodd;clip-rule:evenodd;fill:#F89B1F;" d="M64.346,69.839c1.385,0,2.512-1.129,2.512-2.512
		c0-1.385-1.128-2.512-2.512-2.512c-1.383,0-2.512,1.128-2.512,2.512C61.833,68.71,62.963,69.839,64.346,69.839z"/>
</g>
</svg>
