<?xml version="1.0" encoding="iso-8859-1"?>
<!-- Generator: Adobe Illustrator 19.1.1, SVG Export Plug-In . SVG Version: 6.00 Build 0)  -->
<svg version="1.1" id="Capa_1" xmlns="http://www.w3.org/2000/svg" xmlns:xlink="http://www.w3.org/1999/xlink" x="0px" y="0px"
	 viewBox="0 0 92.021 92.023" style="enable-background:new 0 0 92.021 92.023;" xml:space="preserve">
<g>
	<g>
		<path style="fill:#613D7D;" d="M90.442,34.104c6.576,24.541-7.987,49.765-32.525,56.34c-24.54,6.575-49.762-7.989-56.338-32.529
			C-4.996,33.377,9.565,8.154,34.105,1.579C58.644-4.996,83.867,9.566,90.442,34.104z"/>
	</g>
</g>
<g>
	<g>
		<g>
			<linearGradient id="SVGID_1_" gradientUnits="userSpaceOnUse" x1="26.6971" y1="13.5517" x2="46.0078" y2="85.6201">
				<stop  offset="0" style="stop-color:#DE3F40"/>
				<stop  offset="1" style="stop-color:#EB9722"/>
			</linearGradient>
			<line style="fill:none;stroke:url(#SVGID_1_);stroke-miterlimit:10;" x1="45.911" y1="85.511" x2="45.912" y2="85.011"/>
			<linearGradient id="SVGID_2_" gradientUnits="userSpaceOnUse" x1="36.6154" y1="10.8941" x2="55.9261" y2="82.9625">
				<stop  offset="0" style="stop-color:#DE3F40"/>
				<stop  offset="1" style="stop-color:#EB9722"/>
			</linearGradient>
			
				<line style="fill:none;stroke:url(#SVGID_2_);stroke-miterlimit:10;stroke-dasharray:0.987,4.9351;" x1="45.918" y1="80.076" x2="46.007" y2="11.479"/>
			<linearGradient id="SVGID_3_" gradientUnits="userSpaceOnUse" x1="45.9139" y1="8.4026" x2="65.2246" y2="80.471">
				<stop  offset="0" style="stop-color:#DE3F40"/>
				<stop  offset="1" style="stop-color:#EB9722"/>
			</linearGradient>
			<line style="fill:none;stroke:url(#SVGID_3_);stroke-miterlimit:10;" x1="46.01" y1="9.011" x2="46.01" y2="8.511"/>
		</g>
		<g>
			<linearGradient id="SVGID_4_" gradientUnits="userSpaceOnUse" x1="19.3271" y1="14.4213" x2="38.1368" y2="84.6202">
				<stop  offset="0" style="stop-color:#DE3F40"/>
				<stop  offset="1" style="stop-color:#EB9722"/>
			</linearGradient>
			<line style="fill:none;stroke:url(#SVGID_4_);stroke-miterlimit:10;" x1="38.04" y1="84.511" x2="38.041" y2="84.011"/>
			<linearGradient id="SVGID_5_" gradientUnits="userSpaceOnUse" x1="28.9944" y1="11.831" x2="47.8041" y2="82.0299">
				<stop  offset="0" style="stop-color:#DE3F40"/>
				<stop  offset="1" style="stop-color:#EB9722"/>
			</linearGradient>
			
				<line style="fill:none;stroke:url(#SVGID_5_);stroke-miterlimit:10;stroke-dasharray:0.961,4.8052;" x1="38.048" y1="79.206" x2="38.15" y2="12.414"/>
			<linearGradient id="SVGID_6_" gradientUnits="userSpaceOnUse" x1="38.0577" y1="9.4024" x2="56.8674" y2="79.6013">
				<stop  offset="0" style="stop-color:#DE3F40"/>
				<stop  offset="1" style="stop-color:#EB9722"/>
			</linearGradient>
			<line style="fill:none;stroke:url(#SVGID_6_);stroke-miterlimit:10;" x1="38.153" y1="10.011" x2="38.154" y2="9.511"/>
		</g>
		<g>
			<linearGradient id="SVGID_7_" gradientUnits="userSpaceOnUse" x1="13.0796" y1="16.4818" x2="30.2654" y2="80.6202">
				<stop  offset="0" style="stop-color:#DE3F40"/>
				<stop  offset="1" style="stop-color:#EB9722"/>
			</linearGradient>
			<line style="fill:none;stroke:url(#SVGID_7_);stroke-miterlimit:10;" x1="30.169" y1="80.511" x2="30.17" y2="80.011"/>
			<linearGradient id="SVGID_8_" gradientUnits="userSpaceOnUse" x1="21.9509" y1="14.1047" x2="39.1368" y2="78.2431">
				<stop  offset="0" style="stop-color:#DE3F40"/>
				<stop  offset="1" style="stop-color:#EB9722"/>
			</linearGradient>
			
				<line style="fill:none;stroke:url(#SVGID_8_);stroke-miterlimit:10;stroke-dasharray:1.0385,5.1923;" x1="30.177" y1="74.819" x2="30.262" y2="15.107"/>
			<linearGradient id="SVGID_9_" gradientUnits="userSpaceOnUse" x1="30.1697" y1="11.9025" x2="47.3555" y2="76.0409">
				<stop  offset="0" style="stop-color:#DE3F40"/>
				<stop  offset="1" style="stop-color:#EB9722"/>
			</linearGradient>
			<line style="fill:none;stroke:url(#SVGID_9_);stroke-miterlimit:10;" x1="30.265" y1="12.511" x2="30.266" y2="12.011"/>
		</g>
		<g>
			<linearGradient id="SVGID_10_" gradientUnits="userSpaceOnUse" x1="7.4191" y1="20.9807" x2="22.3946" y2="76.8701">
				<stop  offset="0" style="stop-color:#DE3F40"/>
				<stop  offset="1" style="stop-color:#EB9722"/>
			</linearGradient>
			<line style="fill:none;stroke:url(#SVGID_10_);stroke-miterlimit:10;" x1="22.298" y1="76.761" x2="22.299" y2="76.261"/>
			<linearGradient id="SVGID_11_" gradientUnits="userSpaceOnUse" x1="15.163" y1="18.9057" x2="30.1385" y2="74.7952">
				<stop  offset="0" style="stop-color:#DE3F40"/>
				<stop  offset="1" style="stop-color:#EB9722"/>
			</linearGradient>
			
				<line style="fill:none;stroke:url(#SVGID_11_);stroke-miterlimit:10;stroke-dasharray:0.9941,4.9707;" x1="22.306" y1="71.291" x2="22.375" y2="20.092"/>
			<linearGradient id="SVGID_12_" gradientUnits="userSpaceOnUse" x1="22.2825" y1="16.9981" x2="37.258" y2="72.8876">
				<stop  offset="0" style="stop-color:#DE3F40"/>
				<stop  offset="1" style="stop-color:#EB9722"/>
			</linearGradient>
			<line style="fill:none;stroke:url(#SVGID_12_);stroke-miterlimit:10;" x1="22.378" y1="17.607" x2="22.379" y2="17.107"/>
		</g>
		<g>
			<linearGradient id="SVGID_13_" gradientUnits="userSpaceOnUse" x1="3.9221" y1="29.8046" x2="14.5236" y2="69.3702">
				<stop  offset="0" style="stop-color:#DE3F40"/>
				<stop  offset="1" style="stop-color:#EB9722"/>
			</linearGradient>
			<line style="fill:none;stroke:url(#SVGID_13_);stroke-miterlimit:10;" x1="14.427" y1="69.261" x2="14.428" y2="68.761"/>
			<linearGradient id="SVGID_14_" gradientUnits="userSpaceOnUse" x1="9.475" y1="28.3167" x2="20.0765" y2="67.8823">
				<stop  offset="0" style="stop-color:#DE3F40"/>
				<stop  offset="1" style="stop-color:#EB9722"/>
			</linearGradient>
			
				<line style="fill:none;stroke:url(#SVGID_14_);stroke-miterlimit:10;stroke-dasharray:1.0038,5.0188;" x1="14.436" y1="63.742" x2="14.489" y2="30.116"/>
			<linearGradient id="SVGID_15_" gradientUnits="userSpaceOnUse" x1="14.3968" y1="26.9979" x2="24.9984" y2="66.5635">
				<stop  offset="0" style="stop-color:#DE3F40"/>
				<stop  offset="1" style="stop-color:#EB9722"/>
			</linearGradient>
			<line style="fill:none;stroke:url(#SVGID_15_);stroke-miterlimit:10;" x1="14.493" y1="27.607" x2="14.493" y2="27.107"/>
		</g>
	</g>
</g>
<g>
	<g>
		<g>
			<path style="fill:#FFFFFF;" d="M23.902,50.58c-0.504,0.858-0.793,1.857-0.793,2.924c0,2.869,2.088,5.249,4.828,5.705l0.027-0.002
				c0.63,9.418,8.469,16.863,18.046,16.863c9.577,0,17.416-7.444,18.046-16.862l0.027,0.001c2.739-0.456,4.828-2.836,4.828-5.705
				c0-1.067-0.289-2.066-0.793-2.924"/>
			<linearGradient id="SVGID_16_" gradientUnits="userSpaceOnUse" x1="46.0104" y1="53.8259" x2="46.0104" y2="15.8239">
				<stop  offset="0" style="stop-color:#FACF58"/>
				<stop  offset="1" style="stop-color:#EB9722"/>
			</linearGradient>
			<path style="fill:url(#SVGID_16_);" d="M46.01,15.824L46.01,15.824c1.383,0,2.503,1.121,2.503,2.503v12.308h0
				c1.383,0,2.503-1.121,2.503-2.503v-9.275l0.002,0.001c10.695,2.299,18.711,11.808,18.711,23.19c0,0.654-0.046,1.296-0.098,1.936
				c1.626,0.892,2.561,1.885,2.561,2.937c0,1.342-1.505,2.591-4.068,3.651c-4.719,1.952-12.556,3.255-22.115,3.255
				s-17.396-1.303-22.115-3.255c-2.563-1.06-4.068-2.309-4.068-3.651c0-1.052,0.936-2.044,2.561-2.937
				c-0.052-0.64-0.098-1.282-0.098-1.936c0-11.382,8.016-20.891,18.711-23.19l0.002-0.001v9.275c0,1.383,1.121,2.503,2.503,2.503h0
				V18.327C43.507,16.945,44.628,15.824,46.01,15.824L46.01,15.824z"/>
			
				<path style="fill:none;stroke:#FFFFFF;stroke-width:1.2596;stroke-linecap:round;stroke-linejoin:round;stroke-miterlimit:10;" d="
				M69.633,43.983c-4.719,1.952-12.556,3.255-22.115,3.255"/>
			<circle style="fill:#EB9722;" cx="53.458" cy="58.624" r="1.612"/>
			<circle style="fill:#EB9722;" cx="38.563" cy="58.624" r="1.612"/>
		</g>
		<path style="fill:#EB9722;" d="M52.376,75.423c0.055-0.09,0.093-0.189,0.096-0.301c0-0.006,0.005-0.011,0.005-0.017l-0.001-2.912
			v-1.362c0-2.388-1.944-4.33-4.331-4.33h-4.269c-2.388,0-4.331,1.942-4.331,4.33v1.224v3.046v0.004
			c0,0.002,0.002,0.004,0.002,0.006c0.002,0.117,0.043,0.221,0.101,0.314c0.015,0.025,0.029,0.047,0.047,0.07
			c0.069,0.084,0.153,0.151,0.256,0.19c0.008,0.003,0.012,0.013,0.021,0.016c1.939,0.661,3.971,0.995,6.039,0.995
			s4.1-0.335,6.04-0.995c0.009-0.003,0.013-0.013,0.022-0.016c0.101-0.039,0.185-0.106,0.253-0.188
			C52.345,75.474,52.359,75.45,52.376,75.423z M43.876,67.762h4.269c1.694,0,3.072,1.378,3.072,3.07v0.964
			c-0.803,0.37-3.004,1.283-5.206,1.283c-2.209,0-4.422-1.01-5.206-1.406v-0.842C40.805,69.14,42.182,67.762,43.876,67.762z"/>
	</g>
</g>
</svg>
