<?xml version="1.0" encoding="iso-8859-1"?>
<!-- Generator: Adobe Illustrator 19.1.1, SVG Export Plug-In . SVG Version: 6.00 Build 0)  -->
<svg version="1.1" id="Capa_1" xmlns="http://www.w3.org/2000/svg" xmlns:xlink="http://www.w3.org/1999/xlink" x="0px" y="0px"
	 viewBox="0 0 92.021 92.023" style="enable-background:new 0 0 92.021 92.023;" xml:space="preserve">
<g>
	<g>
		<path style="fill:#DE3F40;" d="M90.442,34.104c6.576,24.541-7.987,49.765-32.525,56.34c-24.54,6.575-49.762-7.989-56.338-32.529
			C-4.996,33.377,9.565,8.154,34.105,1.579C58.644-4.996,83.867,9.566,90.442,34.104z"/>
	</g>
</g>
<g>
	<g>
		<g>
			<linearGradient id="SVGID_1_" gradientUnits="userSpaceOnUse" x1="26.6971" y1="13.5517" x2="46.0078" y2="85.6201">
				<stop  offset="0" style="stop-color:#DE3F40"/>
				<stop  offset="1" style="stop-color:#EB9722"/>
			</linearGradient>
			<line style="fill:none;stroke:url(#SVGID_1_);stroke-miterlimit:10;" x1="45.911" y1="85.511" x2="45.912" y2="85.011"/>
			<linearGradient id="SVGID_2_" gradientUnits="userSpaceOnUse" x1="36.6154" y1="10.8941" x2="55.9261" y2="82.9625">
				<stop  offset="0" style="stop-color:#DE3F40"/>
				<stop  offset="1" style="stop-color:#EB9722"/>
			</linearGradient>
			
				<line style="fill:none;stroke:url(#SVGID_2_);stroke-miterlimit:10;stroke-dasharray:0.987,4.9351;" x1="45.918" y1="80.076" x2="46.007" y2="11.479"/>
			<linearGradient id="SVGID_3_" gradientUnits="userSpaceOnUse" x1="45.9139" y1="8.4026" x2="65.2246" y2="80.471">
				<stop  offset="0" style="stop-color:#DE3F40"/>
				<stop  offset="1" style="stop-color:#EB9722"/>
			</linearGradient>
			<line style="fill:none;stroke:url(#SVGID_3_);stroke-miterlimit:10;" x1="46.01" y1="9.011" x2="46.01" y2="8.511"/>
		</g>
		<g>
			<linearGradient id="SVGID_4_" gradientUnits="userSpaceOnUse" x1="19.3271" y1="14.4213" x2="38.1368" y2="84.6202">
				<stop  offset="0" style="stop-color:#DE3F40"/>
				<stop  offset="1" style="stop-color:#EB9722"/>
			</linearGradient>
			<line style="fill:none;stroke:url(#SVGID_4_);stroke-miterlimit:10;" x1="38.04" y1="84.511" x2="38.041" y2="84.011"/>
			<linearGradient id="SVGID_5_" gradientUnits="userSpaceOnUse" x1="28.9944" y1="11.831" x2="47.8041" y2="82.0299">
				<stop  offset="0" style="stop-color:#DE3F40"/>
				<stop  offset="1" style="stop-color:#EB9722"/>
			</linearGradient>
			
				<line style="fill:none;stroke:url(#SVGID_5_);stroke-miterlimit:10;stroke-dasharray:0.961,4.8052;" x1="38.048" y1="79.206" x2="38.15" y2="12.414"/>
			<linearGradient id="SVGID_6_" gradientUnits="userSpaceOnUse" x1="38.0577" y1="9.4024" x2="56.8674" y2="79.6013">
				<stop  offset="0" style="stop-color:#DE3F40"/>
				<stop  offset="1" style="stop-color:#EB9722"/>
			</linearGradient>
			<line style="fill:none;stroke:url(#SVGID_6_);stroke-miterlimit:10;" x1="38.153" y1="10.011" x2="38.154" y2="9.511"/>
		</g>
		<g>
			<linearGradient id="SVGID_7_" gradientUnits="userSpaceOnUse" x1="13.0796" y1="16.4818" x2="30.2654" y2="80.6202">
				<stop  offset="0" style="stop-color:#DE3F40"/>
				<stop  offset="1" style="stop-color:#EB9722"/>
			</linearGradient>
			<line style="fill:none;stroke:url(#SVGID_7_);stroke-miterlimit:10;" x1="30.169" y1="80.511" x2="30.17" y2="80.011"/>
			<linearGradient id="SVGID_8_" gradientUnits="userSpaceOnUse" x1="21.9509" y1="14.1047" x2="39.1368" y2="78.2431">
				<stop  offset="0" style="stop-color:#DE3F40"/>
				<stop  offset="1" style="stop-color:#EB9722"/>
			</linearGradient>
			
				<line style="fill:none;stroke:url(#SVGID_8_);stroke-miterlimit:10;stroke-dasharray:1.0385,5.1923;" x1="30.177" y1="74.819" x2="30.262" y2="15.107"/>
			<linearGradient id="SVGID_9_" gradientUnits="userSpaceOnUse" x1="30.1697" y1="11.9025" x2="47.3555" y2="76.0409">
				<stop  offset="0" style="stop-color:#DE3F40"/>
				<stop  offset="1" style="stop-color:#EB9722"/>
			</linearGradient>
			<line style="fill:none;stroke:url(#SVGID_9_);stroke-miterlimit:10;" x1="30.265" y1="12.511" x2="30.266" y2="12.011"/>
		</g>
		<g>
			<linearGradient id="SVGID_10_" gradientUnits="userSpaceOnUse" x1="7.4191" y1="20.9807" x2="22.3946" y2="76.8701">
				<stop  offset="0" style="stop-color:#DE3F40"/>
				<stop  offset="1" style="stop-color:#EB9722"/>
			</linearGradient>
			<line style="fill:none;stroke:url(#SVGID_10_);stroke-miterlimit:10;" x1="22.298" y1="76.761" x2="22.299" y2="76.261"/>
			<linearGradient id="SVGID_11_" gradientUnits="userSpaceOnUse" x1="15.163" y1="18.9057" x2="30.1385" y2="74.7952">
				<stop  offset="0" style="stop-color:#DE3F40"/>
				<stop  offset="1" style="stop-color:#EB9722"/>
			</linearGradient>
			
				<line style="fill:none;stroke:url(#SVGID_11_);stroke-miterlimit:10;stroke-dasharray:0.9941,4.9707;" x1="22.306" y1="71.291" x2="22.375" y2="20.092"/>
			<linearGradient id="SVGID_12_" gradientUnits="userSpaceOnUse" x1="22.2825" y1="16.9981" x2="37.258" y2="72.8876">
				<stop  offset="0" style="stop-color:#DE3F40"/>
				<stop  offset="1" style="stop-color:#EB9722"/>
			</linearGradient>
			<line style="fill:none;stroke:url(#SVGID_12_);stroke-miterlimit:10;" x1="22.378" y1="17.607" x2="22.379" y2="17.107"/>
		</g>
		<g>
			<linearGradient id="SVGID_13_" gradientUnits="userSpaceOnUse" x1="3.9221" y1="29.8046" x2="14.5236" y2="69.3702">
				<stop  offset="0" style="stop-color:#DE3F40"/>
				<stop  offset="1" style="stop-color:#EB9722"/>
			</linearGradient>
			<line style="fill:none;stroke:url(#SVGID_13_);stroke-miterlimit:10;" x1="14.427" y1="69.261" x2="14.428" y2="68.761"/>
			<linearGradient id="SVGID_14_" gradientUnits="userSpaceOnUse" x1="9.475" y1="28.3167" x2="20.0765" y2="67.8823">
				<stop  offset="0" style="stop-color:#DE3F40"/>
				<stop  offset="1" style="stop-color:#EB9722"/>
			</linearGradient>
			
				<line style="fill:none;stroke:url(#SVGID_14_);stroke-miterlimit:10;stroke-dasharray:1.0038,5.0188;" x1="14.436" y1="63.742" x2="14.489" y2="30.116"/>
			<linearGradient id="SVGID_15_" gradientUnits="userSpaceOnUse" x1="14.3968" y1="26.9979" x2="24.9984" y2="66.5635">
				<stop  offset="0" style="stop-color:#DE3F40"/>
				<stop  offset="1" style="stop-color:#EB9722"/>
			</linearGradient>
			<line style="fill:none;stroke:url(#SVGID_15_);stroke-miterlimit:10;" x1="14.493" y1="27.607" x2="14.493" y2="27.107"/>
		</g>
	</g>
</g>
<g>
	<linearGradient id="SVGID_16_" gradientUnits="userSpaceOnUse" x1="19.1551" y1="46.0113" x2="72.8657" y2="46.0113">
		<stop  offset="0" style="stop-color:#FACF58"/>
		<stop  offset="1" style="stop-color:#EB9722"/>
	</linearGradient>
	<path style="fill:url(#SVGID_16_);" d="M72.565,40.173c0,12.523,0.3,34.356,0.3,34.356L19.45,74.345c0,0-0.295-30.805-0.295-34.172
		c0-12.524,11.966-22.68,26.686-22.68C60.62,17.493,72.565,27.649,72.565,40.173z"/>
	<path style="fill:#FFFFFF;" d="M21.872,46.386c-0.552,0.941-0.869,2.037-0.869,3.207c0,3.146,2.29,5.757,5.295,6.257l0.03-0.003
		c0.691,10.329,9.288,18.493,19.792,18.493c10.504,0,19.1-8.164,19.791-18.492l0.03,0.002c3.004-0.5,5.295-3.111,5.295-6.257
		c0-1.17-0.317-2.266-0.869-3.207"/>
	<circle style="fill:#FFFFFF;" cx="46.01" cy="46.852" r="21.896"/>
	<circle style="fill:#DE3F40;" cx="54.286" cy="55.208" r="1.768"/>
	<circle style="fill:#DE3F40;" cx="37.952" cy="55.208" r="1.768"/>
	
		<ellipse transform="matrix(-0.8806 -0.4739 0.4739 -0.8806 26.6184 100.4122)" style="fill:#FFFFFF;" cx="25.961" cy="46.852" rx="4.113" ry="7.145"/>
	
		<ellipse transform="matrix(0.8806 -0.4739 0.4739 0.8806 -14.2883 37.0032)" style="fill:#FFFFFF;" cx="66.277" cy="46.852" rx="4.113" ry="7.145"/>
	<linearGradient id="SVGID_17_" gradientUnits="userSpaceOnUse" x1="25.3714" y1="32.7057" x2="66.8667" y2="32.7057">
		<stop  offset="0" style="stop-color:#FACF58"/>
		<stop  offset="1" style="stop-color:#EB9722"/>
	</linearGradient>
	<path style="fill:url(#SVGID_17_);" d="M66.867,34.43c0,8.516-10.773,11.956-22.274,11.956c-11.44,0-19.221-3.441-19.221-11.956
		c0-8.491,9.28-15.405,20.724-15.405C57.54,19.025,66.867,25.939,66.867,34.43z"/>
	<path style="fill:none;stroke:#DE3F40;stroke-width:1.0967;stroke-linecap:round;stroke-linejoin:round;stroke-miterlimit:10;" d="
		M53.634,64.543c-1.714,2.538-4.617,4.206-7.91,4.206c-3.21,0-6.051-1.586-7.779-4.017"/>
</g>
</svg>
